<svg width="16" height="18" viewBox="0 0 16 18" fill="none" xmlns="http://www.w3.org/2000/svg">
<path fill-rule="evenodd" clip-rule="evenodd" d="M7.39167 0.666687C7.11363 0.666687 6.83832 0.721464 6.58146 0.827888C6.3246 0.934313 6.09122 1.0903 5.89466 1.28694C5.6981 1.48358 5.54221 1.71702 5.43588 1.97392C5.32956 2.23082 5.27489 2.50615 5.275 2.78419C5.275 2.95335 5.15833 3.18002 4.87833 3.33169C4.79255 3.37843 4.70781 3.42705 4.62417 3.47752C4.34583 3.64502 4.08417 3.63419 3.93083 3.54669C3.44089 3.26635 2.86 3.19102 2.31476 3.33712C1.76951 3.48323 1.30412 3.83892 1.02 4.32669L0.432501 5.33335C0.291758 5.5751 0.20025 5.84231 0.16325 6.11959C0.12625 6.39686 0.144489 6.67872 0.216918 6.94891C0.289346 7.2191 0.414531 7.47229 0.585258 7.69388C0.755985 7.91547 0.968878 8.10108 1.21167 8.24002C1.36 8.32502 1.49917 8.54002 1.4925 8.86169C1.49061 8.95334 1.49061 9.04503 1.4925 9.13669C1.49917 9.45752 1.35917 9.67335 1.21167 9.75835C0.968878 9.89729 0.755985 10.0829 0.585258 10.3045C0.414531 10.5261 0.289346 10.7793 0.216918 11.0495C0.144489 11.3197 0.12625 11.6015 0.16325 11.8788C0.20025 12.1561 0.291758 12.4233 0.432501 12.665L1.02 13.6734C1.30426 14.161 1.76971 14.5165 2.31494 14.6624C2.86017 14.8084 3.44099 14.7329 3.93083 14.4525C4.08417 14.365 4.34583 14.3542 4.62417 14.5225C4.7075 14.5725 4.79222 14.6209 4.87833 14.6675C5.1575 14.8192 5.275 15.0459 5.275 15.215C5.27478 15.4931 5.32937 15.7685 5.43564 16.0255C5.54192 16.2825 5.6978 16.5161 5.89437 16.7128C6.09094 16.9095 6.32435 17.0656 6.58127 17.1721C6.83818 17.2785 7.11356 17.3334 7.39167 17.3334H8.60833C8.88637 17.3334 9.16168 17.2786 9.41854 17.1722C9.6754 17.0657 9.90878 16.9097 10.1053 16.7131C10.3019 16.5165 10.4578 16.283 10.5641 16.0261C10.6704 15.7692 10.7251 15.4939 10.725 15.2159C10.725 15.0467 10.8417 14.82 11.1217 14.6684C11.2078 14.6217 11.2925 14.5734 11.3758 14.5234C11.6542 14.355 11.9158 14.365 12.0692 14.4534C13.0892 15.0367 14.3892 14.6892 14.98 13.6734L15.5675 12.6659C15.7082 12.4241 15.7998 12.1569 15.8368 11.8796C15.8738 11.6023 15.8555 11.3205 15.7831 11.0503C15.7107 10.7801 15.5855 10.5269 15.4147 10.3053C15.244 10.0837 15.0311 9.89812 14.7883 9.75919C14.64 9.67419 14.5008 9.45919 14.5075 9.13752C14.5094 9.04586 14.5094 8.95418 14.5075 8.86252C14.5008 8.54169 14.6408 8.32585 14.7883 8.24085C15.0311 8.10192 15.244 7.9163 15.4147 7.69471C15.5855 7.47312 15.7107 7.21993 15.7831 6.94974C15.8555 6.67955 15.8738 6.39769 15.8368 6.12042C15.7998 5.84314 15.7082 5.57593 15.5675 5.33419L14.9808 4.32585C14.6966 3.83801 14.231 3.48233 13.6855 3.33637C13.1401 3.19041 12.5591 3.26601 12.0692 3.54669C11.9158 3.63419 11.6542 3.64502 11.3758 3.47752C11.2925 3.42696 11.2078 3.37835 11.1217 3.33169C10.8425 3.18002 10.725 2.95335 10.725 2.78419C10.7251 2.50615 10.6704 2.23082 10.5641 1.97392C10.4578 1.71702 10.3019 1.48358 10.1053 1.28694C9.90878 1.0903 9.6754 0.934313 9.41854 0.827888C9.16168 0.721464 8.88637 0.666687 8.60833 0.666687H7.39167ZM8 6.50002C7.33696 6.50002 6.70107 6.76341 6.23223 7.23225C5.76339 7.70109 5.5 8.33698 5.5 9.00002C5.5 9.66306 5.76339 10.2989 6.23223 10.7678C6.70107 11.2366 7.33696 11.5 8 11.5C8.66304 11.5 9.29893 11.2366 9.76777 10.7678C10.2366 10.2989 10.5 9.66306 10.5 9.00002C10.5 8.33698 10.2366 7.70109 9.76777 7.23225C9.29893 6.76341 8.66304 6.50002 8 6.50002Z" fill="#DDDDDD"/>
</svg>
